<?xml version="1.0" encoding="utf-8"?>
<!-- Generator: Adobe Illustrator 22.0.1, SVG Export Plug-In . SVG Version: 6.00 Build 0)  -->
<svg version="1.1" id="Calque_1" xmlns="http://www.w3.org/2000/svg" xmlns:xlink="http://www.w3.org/1999/xlink" x="0px" y="0px"
	 viewBox="0 0 144.1 70.9" style="enable-background:new 0 0 144.1 70.9;" xml:space="preserve">
<style type="text/css">
	.st0{clip-path:url(#SVGID_2_);fill:url(#SVGID_3_);}
	.st1{clip-path:url(#SVGID_5_);fill:url(#SVGID_6_);}
	.st2{clip-path:url(#SVGID_8_);fill:url(#SVGID_9_);}
	.st3{clip-path:url(#SVGID_11_);fill:url(#SVGID_12_);}
	.st4{clip-path:url(#SVGID_14_);fill:url(#SVGID_15_);}
	.st5{clip-path:url(#SVGID_17_);fill:url(#SVGID_18_);}
	.st6{clip-path:url(#SVGID_20_);fill:url(#SVGID_21_);}
	.st7{clip-path:url(#SVGID_23_);fill:url(#SVGID_24_);}
	.st8{clip-path:url(#SVGID_26_);fill:url(#SVGID_27_);}
	.st9{clip-path:url(#SVGID_29_);fill:url(#SVGID_30_);}
	.st10{clip-path:url(#SVGID_32_);fill:url(#SVGID_33_);}
	.st11{clip-path:url(#SVGID_35_);fill:#575756;}
</style>
<g>
	<defs>
		<path id="SVGID_1_" d="M63.1,61.7c0-2,1.2-6,3-6c0.7,0,0.9,0.6,0.9,0.8l-1,4.9c-0.3,1.3-1.2,1.9-1.8,1.9
			C63.8,63.4,63.1,63.4,63.1,61.7 M59.9,62c0,2.6,1.4,3.5,2.9,3.5c1.5,0,2.6-1,3.2-2c0.1,1.3,0.9,2,2.1,2c1.2,0,3.1-0.5,4.4-4h-0.9
			c-0.3,1.1-0.9,2-1.8,2c-0.6,0-0.9-0.3-0.9-0.9c0-0.2,0-0.4,0.1-0.7l1.6-7.4h-3.1l-0.2,1.2v-0.2c0-0.6-0.5-1.1-1.8-1.1
			C61.7,54.4,59.9,59.1,59.9,62"/>
	</defs>
	<clipPath id="SVGID_2_">
		<use xlink:href="#SVGID_1_"  style="overflow:visible;"/>
	</clipPath>
	
		<linearGradient id="SVGID_3_" gradientUnits="userSpaceOnUse" x1="-334.0461" y1="311.5529" x2="-333.0461" y2="311.5529" gradientTransform="matrix(0 11.1289 11.1289 0 -3401.012 3771.9937)">
		<stop  offset="0" style="stop-color:#F6A520"/>
		<stop  offset="1" style="stop-color:#E16B10"/>
	</linearGradient>
	<rect x="59.9" y="54.4" class="st0" width="12.7" height="11.1"/>
</g>
<g>
	<defs>
		<path id="SVGID_4_" d="M74.3,68.5c0-0.9,1-1.4,2.1-1.9l-0.1,0.6c-0.3,1.3-0.8,1.9-1.3,1.9C74.5,69.2,74.3,68.8,74.3,68.5
			 M74.6,61.7c0-2,1.2-6,3-6c0.7,0,0.9,0.6,0.9,0.8l-1.1,5.2c-0.3,1.1-1.2,1.7-1.7,1.7C75.3,63.4,74.6,63.4,74.6,61.7 M71.4,62
			c0,2.6,1.4,3.5,2.9,3.5c1.1,0,2-0.5,2.6-1.2l-0.3,1.2c-1.6,0.5-3.5,1.4-3.5,3.2c0,1.4,1.1,2.1,2.4,2.1c1.4,0,3.3-0.6,3.9-3.7
			l0.3-1.6c1.3-0.4,3-1.2,3.9-4.1h-0.9c-0.6,1.9-1.4,2.6-2.7,3.1l2.2-10.1H79l-0.2,1.1v-0.1c0-0.6-0.5-1.1-1.8-1.1
			C73.2,54.4,71.4,59.1,71.4,62"/>
	</defs>
	<clipPath id="SVGID_5_">
		<use xlink:href="#SVGID_4_"  style="overflow:visible;"/>
	</clipPath>
	
		<linearGradient id="SVGID_6_" gradientUnits="userSpaceOnUse" x1="-356.9907" y1="341.8393" x2="-355.9907" y2="341.8393" gradientTransform="matrix(0 -16.4414 -16.4414 0 5697.7988 -5798.5659)">
		<stop  offset="0" style="stop-color:#1E1A18"/>
		<stop  offset="1" style="stop-color:#4D4B4B"/>
	</linearGradient>
	<rect x="71.4" y="54.4" class="st1" width="12.2" height="16.4"/>
</g>
<g>
	<defs>
		<path id="SVGID_7_" d="M85.3,68.5c0-0.9,1-1.4,2.1-1.9l-0.1,0.6c-0.3,1.3-0.8,1.9-1.3,1.9C85.6,69.2,85.3,68.8,85.3,68.5
			 M85.6,61.7c0-2,1.2-6,3-6c0.7,0,0.9,0.6,0.9,0.8l-1.1,5.2c-0.3,1.1-1.2,1.7-1.7,1.7C86.3,63.4,85.6,63.4,85.6,61.7 M82.4,62
			c0,2.6,1.4,3.5,2.9,3.5c1.1,0,2-0.5,2.6-1.2l-0.3,1.2c-1.6,0.5-3.5,1.4-3.5,3.2c0,1.4,1.1,2.1,2.4,2.1c1.4,0,3.3-0.6,3.9-3.7
			l0.3-1.6c1.4-0.4,3-1.2,3.9-4.1h-0.9c-0.6,1.9-1.4,2.6-2.7,3.1l2.2-10.1H90l-0.2,1.1v-0.1c0-0.6-0.5-1.1-1.8-1.1
			C84.2,54.4,82.4,59.1,82.4,62"/>
	</defs>
	<clipPath id="SVGID_8_">
		<use xlink:href="#SVGID_7_"  style="overflow:visible;"/>
	</clipPath>
	
		<linearGradient id="SVGID_9_" gradientUnits="userSpaceOnUse" x1="-356.9907" y1="341.8392" x2="-355.9907" y2="341.8392" gradientTransform="matrix(0 -16.4414 -16.4414 0 5708.8384 -5798.5659)">
		<stop  offset="0" style="stop-color:#1E1A18"/>
		<stop  offset="1" style="stop-color:#4D4B4B"/>
	</linearGradient>
	<rect x="82.4" y="54.4" class="st2" width="12.2" height="16.4"/>
</g>
<g>
	<defs>
		<path id="SVGID_10_" d="M96.1,50.6l-2.3,10.9c-0.1,0.5-0.2,1-0.2,1.4c0,1.8,1,2.6,2.3,2.6c1.2,0,3.3-0.5,4.6-4h-0.9
			c-0.3,1.1-1.1,1.9-2,1.9c-0.6,0-0.9-0.2-0.9-0.8c0-0.2,0-0.4,0.1-0.7l2.5-11.8L96.1,50.6z"/>
	</defs>
	<clipPath id="SVGID_11_">
		<use xlink:href="#SVGID_10_"  style="overflow:visible;"/>
	</clipPath>
	
		<linearGradient id="SVGID_12_" gradientUnits="userSpaceOnUse" x1="-357.6338" y1="342.688" x2="-356.6338" y2="342.688" gradientTransform="matrix(0 -15.374 -15.374 0 5365.4888 -5432.7119)">
		<stop  offset="0" style="stop-color:#1E1A18"/>
		<stop  offset="1" style="stop-color:#4D4B4B"/>
	</linearGradient>
	<rect x="93.5" y="50.2" class="st3" width="6.9" height="15.4"/>
</g>
<g>
	<defs>
		<path id="SVGID_13_" d="M102.5,61.8c0-2.1,1.3-6.1,2.8-6.1c0.5,0,0.8,0.3,0.8,1.2c-0.4,0.2-0.6,0.5-0.6,1.1c0,0.5,0.2,0.9,0.5,1
			c-0.3,2.6-1.4,4.5-2.5,4.5C102.8,63.5,102.5,63.2,102.5,61.8 M99.2,62.1c0,2.5,1.5,3.4,3.5,3.4c2.7,0,4.9-2.6,5.2-6.8
			c1.2-0.6,1.8-2,2.2-2.9h-0.7c-0.2,0.4-0.8,1.4-1.5,1.5c-0.1-1.9-1-2.9-2.8-2.9C100.6,54.3,99.2,59.6,99.2,62.1"/>
	</defs>
	<clipPath id="SVGID_14_">
		<use xlink:href="#SVGID_13_"  style="overflow:visible;"/>
	</clipPath>
	
		<linearGradient id="SVGID_15_" gradientUnits="userSpaceOnUse" x1="-361.3605" y1="347.6072" x2="-360.3605" y2="347.6072" gradientTransform="matrix(0 -11.1709 -11.1709 0 3987.7744 -3971.2151)">
		<stop  offset="0" style="stop-color:#1E1A18"/>
		<stop  offset="1" style="stop-color:#4D4B4B"/>
	</linearGradient>
	<rect x="99.2" y="54.3" class="st4" width="10.9" height="11.2"/>
</g>
<g>
	<defs>
		<path id="SVGID_16_" d="M17,0C13,0,9.6,3.3,9.6,7.4c0,4.1,3.3,7.4,7.4,7.4c4.1,0,7.4-3.3,7.4-7.4C24.5,3.3,21.1,0,17,0L17,0z"/>
	</defs>
	<clipPath id="SVGID_17_">
		<use xlink:href="#SVGID_16_"  style="overflow:visible;"/>
	</clipPath>
	
		<linearGradient id="SVGID_18_" gradientUnits="userSpaceOnUse" x1="-350.0533" y1="312.7611" x2="-349.0533" y2="312.7611" gradientTransform="matrix(10.4812 10.4812 10.4812 -10.4812 402.6754 6949.2661)">
		<stop  offset="0" style="stop-color:#F6A520"/>
		<stop  offset="1" style="stop-color:#E16B10"/>
	</linearGradient>
	<polygon class="st5" points="17,-7.4 31.9,7.4 17,22.2 2.2,7.4 	"/>
</g>
<g>
	<defs>
		<path id="SVGID_19_" d="M8.2,35C3.7,35,0,38.6,0,43.2c0,1.7,0.5,3.3,1.4,4.7c4,5.2,10.1,8.5,17.1,8.5c9.5,0,17.6-6.2,20.5-14.9
			c-10.4,10.3-23.7-3.8-26.2-5.1C11.4,35.5,9.9,35,8.2,35L8.2,35z"/>
	</defs>
	<clipPath id="SVGID_20_">
		<use xlink:href="#SVGID_19_"  style="overflow:visible;"/>
	</clipPath>
	
		<linearGradient id="SVGID_21_" gradientUnits="userSpaceOnUse" x1="-352.8867" y1="325.7065" x2="-351.8867" y2="325.7065" gradientTransform="matrix(38.9707 0 0 -38.9707 13752.2549 12738.6729)">
		<stop  offset="0" style="stop-color:#F6A520"/>
		<stop  offset="1" style="stop-color:#E16B10"/>
	</linearGradient>
	<rect x="0" y="35" class="st6" width="39" height="21.4"/>
</g>
<g>
	<defs>
		<path id="SVGID_22_" d="M20,24.6c0,0.3,0,0.7,0.1,1c0.6,8.6,11.8,10.7,13.1,17.7c2.4-0.8,4.7-2.1,6.5-4c0.4-1.6,0.6-3.4,0.6-5.1
			c0-5.9-2.3-11.3-6.1-15.2c-1.5-1.6-3.6-2.5-5.9-2.5C23.7,16.4,20,20.1,20,24.6"/>
	</defs>
	<clipPath id="SVGID_23_">
		<use xlink:href="#SVGID_22_"  style="overflow:visible;"/>
	</clipPath>
	
		<linearGradient id="SVGID_24_" gradientUnits="userSpaceOnUse" x1="-348.8808" y1="321.2086" x2="-347.8808" y2="321.2086" gradientTransform="matrix(21.151 21.151 21.151 -21.151 606.0139 14193.54)">
		<stop  offset="0" style="stop-color:#F6A520"/>
		<stop  offset="1" style="stop-color:#E16B10"/>
	</linearGradient>
	<polygon class="st7" points="30.1,6.3 53.6,29.9 30.1,53.4 6.5,29.9 	"/>
</g>
<g>
	<defs>
		<path id="SVGID_25_" d="M48.2,40.7c0-3.6,2.3-10.4,4.9-10.4c1,0,1.3,0.6,1.4,2.1c-0.7,0.3-1.1,1-1.1,2c0,0.7,0.2,1.4,1,1.6
			c-0.6,4.4-2.5,7.7-4.3,7.7C48.7,43.7,48.2,43.1,48.2,40.7 M42.7,41.2c0,4.2,2.5,5.8,5.9,5.8c4.6,0,8.3-4.3,8.8-11.1
			c2.7-0.4,5.1-1.6,6.5-3.1l-0.3-1c-1.6,1.1-4,2.2-5.7,2.2c-0.1,0-0.3,0-0.4-0.1c0-3.9-1.6-5.9-4.7-5.9C45.2,28,42.7,36.9,42.7,41.2
			"/>
	</defs>
	<clipPath id="SVGID_26_">
		<use xlink:href="#SVGID_25_"  style="overflow:visible;"/>
	</clipPath>
	
		<linearGradient id="SVGID_27_" gradientUnits="userSpaceOnUse" x1="-355.751" y1="340.2027" x2="-354.7509" y2="340.2027" gradientTransform="matrix(0 -18.9825 -18.9825 0 6511.2876 -6706.0283)">
		<stop  offset="0" style="stop-color:#1E1A18"/>
		<stop  offset="1" style="stop-color:#4D4B4B"/>
	</linearGradient>
	<rect x="42.7" y="28" class="st8" width="21.3" height="19"/>
</g>
<g>
	<defs>
		<path id="SVGID_28_" d="M64.5,41.8c0-0.3,0-0.6,0.1-0.9l2-9.4c0.4-0.5,1.7-0.7,2.2-0.7c1.3,0,2,1.7,2,3.6c0,3.9-1.9,9.1-4.3,9.1
			C65.2,43.5,64.5,42.9,64.5,41.8 M63.4,21.7l-4,18.5c-0.2,0.8-0.3,1.5-0.3,2.1c0,3,1.8,4.7,5.2,4.7c7.8,0,10.1-8.2,10.1-12.5
			c0-4.7-1.8-6.3-4.4-6.3c-0.7,0-1.5,0.1-3,1l1.8-8.3L63.4,21.7z"/>
	</defs>
	<clipPath id="SVGID_29_">
		<use xlink:href="#SVGID_28_"  style="overflow:visible;"/>
	</clipPath>
	
		<linearGradient id="SVGID_30_" gradientUnits="userSpaceOnUse" x1="-353.558" y1="337.308" x2="-352.558" y2="337.308" gradientTransform="matrix(0 -26.124 -26.124 0 8878.7324 -9189.2627)">
		<stop  offset="0" style="stop-color:#1E1A18"/>
		<stop  offset="1" style="stop-color:#4D4B4B"/>
	</linearGradient>
	<rect x="59.2" y="21" class="st9" width="15.3" height="26.1"/>
</g>
<g>
	<defs>
		<path id="SVGID_31_" d="M72,19.1c0,1,0.7,1.8,1.6,2.3c0.3,0.2,0.4,0.4,0.4,0.6l-1.8,2.6c0,0.2,0.1,0.4,0.3,0.5
			c2.8-1.8,4.5-4.3,4.5-6.2c0-1.4-0.8-2.4-2.4-2.4S72,17.7,72,19.1"/>
	</defs>
	<clipPath id="SVGID_32_">
		<use xlink:href="#SVGID_31_"  style="overflow:visible;"/>
	</clipPath>
	
		<linearGradient id="SVGID_33_" gradientUnits="userSpaceOnUse" x1="-365.3165" y1="352.829" x2="-364.3165" y2="352.829" gradientTransform="matrix(0 -8.6582 -8.6582 0 3129.416 -3137.8118)">
		<stop  offset="0" style="stop-color:#E16B10"/>
		<stop  offset="1" style="stop-color:#F6A520"/>
	</linearGradient>
	<rect x="72" y="16.5" class="st10" width="5.1" height="8.7"/>
</g>
<g>
	<defs>
		<rect id="SVGID_34_" width="144.1" height="70.9"/>
	</defs>
	<clipPath id="SVGID_35_">
		<use xlink:href="#SVGID_34_"  style="overflow:visible;"/>
	</clipPath>
	<path class="st11" d="M83.7,42.3l-0.5,0.4c-0.3-0.4-0.7-0.7-1.1-0.9c-0.4-0.2-0.8-0.3-1.2-0.3c-0.5,0-0.9,0.1-1.4,0.4
		c-0.4,0.3-0.8,0.6-1,1c-0.3,0.4-0.4,0.9-0.4,1.4c0,0.7,0.2,1.2,0.7,1.7c0.5,0.5,1,0.7,1.7,0.7c0.4,0,0.8-0.1,1.2-0.2
		c0.4-0.2,0.7-0.4,0.9-0.7c0.2-0.3,0.4-0.6,0.5-1h-2.2V44h2.9c-0.1,0.9-0.4,1.7-1,2.2c-0.6,0.6-1.3,0.9-2.2,0.9
		c-0.9,0-1.7-0.3-2.2-0.8c-0.6-0.6-0.9-1.3-0.9-2.1c0-0.6,0.2-1.2,0.5-1.7c0.3-0.5,0.7-0.9,1.2-1.2c0.5-0.3,1.1-0.4,1.7-0.4
		C82,40.8,82.9,41.3,83.7,42.3"/>
	<path class="st11" d="M85,42.5h0.6l-0.1,0.6c0.2-0.2,0.3-0.4,0.5-0.5c0.2-0.1,0.4-0.2,0.7-0.2c0.2,0,0.3,0,0.5,0.1l-0.3,0.5
		C86.8,43,86.6,43,86.5,43c-0.2,0-0.4,0.1-0.6,0.2c-0.2,0.1-0.3,0.3-0.5,0.6c-0.1,0.3-0.2,0.7-0.3,1.3L84.9,47h-0.6L85,42.5z"/>
	<path class="st11" d="M89.7,42.4c0.4,0,0.7,0.1,1,0.3c0.3,0.2,0.6,0.4,0.7,0.8c0.2,0.3,0.3,0.7,0.3,1.1c0,0.5-0.1,0.9-0.3,1.3
		c-0.2,0.4-0.5,0.7-0.9,0.9c-0.4,0.2-0.8,0.3-1.3,0.3c-0.6,0-1.1-0.2-1.5-0.6c-0.4-0.4-0.6-0.9-0.6-1.5c0-0.5,0.1-0.9,0.3-1.3
		c0.2-0.4,0.5-0.7,0.9-0.9C88.8,42.5,89.2,42.4,89.7,42.4 M89.7,43c-0.4,0-0.7,0.1-1,0.3c-0.3,0.2-0.5,0.4-0.7,0.7
		c-0.2,0.3-0.2,0.6-0.2,1c0,0.5,0.1,0.8,0.4,1.1c0.3,0.3,0.7,0.4,1.1,0.4c0.4,0,0.7-0.1,1-0.3c0.3-0.2,0.5-0.4,0.7-0.7
		c0.2-0.3,0.3-0.7,0.3-1c0-0.3-0.1-0.6-0.2-0.8c-0.1-0.2-0.3-0.4-0.5-0.6C90.2,43,90,43,89.7,43"/>
	<path class="st11" d="M93.4,42.5H94l-0.3,1.9c-0.1,0.5-0.1,0.9-0.1,1c0,0.3,0.1,0.6,0.3,0.8c0.2,0.2,0.5,0.3,0.8,0.3
		c0.3,0,0.5-0.1,0.7-0.2c0.2-0.2,0.4-0.4,0.4-0.6c0-0.1,0.1-0.4,0.2-0.9l0.3-2.2h0.6l-0.2,1.7c-0.1,0.8-0.2,1.4-0.3,1.7
		c-0.1,0.3-0.3,0.6-0.6,0.8c-0.3,0.2-0.7,0.3-1.1,0.3c-0.5,0-0.9-0.2-1.2-0.5c-0.3-0.3-0.5-0.7-0.5-1.2c0-0.2,0-0.4,0.1-0.7l0-0.4
		l0-0.2L93.4,42.5z"/>
	<path class="st11" d="M98.3,42.5h0.6l-0.1,0.7c0.5-0.5,1.1-0.8,1.8-0.8c0.6,0,1.1,0.2,1.5,0.6c0.4,0.4,0.6,0.9,0.6,1.5
		c0,0.7-0.2,1.3-0.8,1.8c-0.5,0.5-1.1,0.8-1.8,0.8c-0.4,0-0.7-0.1-1-0.2c-0.3-0.2-0.5-0.4-0.7-0.7l-0.3,2.5h-0.6L98.3,42.5z
		 M100.5,43c-0.4,0-0.7,0.1-1,0.3s-0.5,0.4-0.7,0.7c-0.2,0.3-0.3,0.7-0.3,1.1c0,0.5,0.1,0.8,0.4,1.1c0.3,0.3,0.7,0.4,1.1,0.4
		c0.5,0,1-0.2,1.4-0.6c0.4-0.4,0.6-0.9,0.6-1.4c0-0.5-0.1-0.8-0.4-1.1C101.3,43.1,100.9,43,100.5,43"/>
	<path class="st11" d="M107.9,44.9h-3.9c0,0.5,0.1,0.9,0.4,1.2c0.3,0.3,0.7,0.5,1.1,0.5c0.3,0,0.6-0.1,0.9-0.2
		c0.3-0.1,0.5-0.3,0.7-0.5l0.4,0.3c-0.2,0.3-0.5,0.5-0.8,0.7c-0.3,0.2-0.7,0.2-1.1,0.2c-0.7,0-1.2-0.2-1.6-0.6
		c-0.3-0.4-0.5-0.9-0.5-1.5c0-0.4,0.1-0.9,0.4-1.3c0.2-0.4,0.5-0.7,0.9-0.9c0.4-0.2,0.8-0.3,1.3-0.3c0.6,0,1,0.2,1.4,0.6
		c0.4,0.4,0.6,0.9,0.6,1.5C107.9,44.6,107.9,44.7,107.9,44.9 M107.4,44.4c0-0.4-0.2-0.8-0.4-1c-0.3-0.3-0.6-0.4-1-0.4
		c-0.4,0-0.8,0.1-1.2,0.4c-0.3,0.2-0.6,0.6-0.7,1H107.4z"/>
	<path class="st11" d="M114.6,42.1l-0.6,0.1c-0.1-0.3-0.2-0.5-0.4-0.6c-0.2-0.1-0.4-0.2-0.6-0.2c-0.2,0-0.4,0.1-0.5,0.2
		c-0.1,0.1-0.2,0.4-0.2,0.6c0,0.2,0.1,0.5,0.2,0.7c0.1,0.2,0.3,0.4,0.7,0.7c0.4,0.3,0.6,0.6,0.8,0.9c0.1,0.3,0.2,0.6,0.2,0.8
		c0,0.3-0.1,0.6-0.2,0.8c-0.2,0.3-0.4,0.5-0.6,0.6c-0.3,0.2-0.6,0.2-0.9,0.2c-0.4,0-0.7-0.1-1-0.4c-0.3-0.2-0.5-0.6-0.6-1.1l0.6-0.2
		c0.1,0.4,0.2,0.6,0.4,0.8c0.2,0.2,0.4,0.3,0.7,0.3c0.3,0,0.5-0.1,0.7-0.3c0.2-0.2,0.3-0.5,0.3-0.8c0-0.2-0.1-0.5-0.2-0.7
		s-0.3-0.5-0.7-0.8c-0.4-0.3-0.6-0.6-0.7-0.8c-0.2-0.3-0.3-0.6-0.3-0.9c0-0.4,0.1-0.7,0.4-1c0.3-0.3,0.6-0.4,1-0.4
		c0.3,0,0.6,0.1,0.9,0.3C114.3,41.4,114.5,41.7,114.6,42.1"/>
	<path class="st11" d="M117.8,42.4c0.4,0,0.7,0.1,1,0.3c0.3,0.2,0.6,0.4,0.7,0.8c0.2,0.3,0.3,0.7,0.3,1.1c0,0.5-0.1,0.9-0.3,1.3
		c-0.2,0.4-0.5,0.7-0.9,0.9c-0.4,0.2-0.8,0.3-1.3,0.3c-0.6,0-1.1-0.2-1.5-0.6c-0.4-0.4-0.6-0.9-0.6-1.5c0-0.5,0.1-0.9,0.3-1.3
		c0.2-0.4,0.5-0.7,0.9-0.9C116.9,42.5,117.3,42.4,117.8,42.4 M117.7,43c-0.4,0-0.7,0.1-1,0.3c-0.3,0.2-0.5,0.4-0.7,0.7
		c-0.2,0.3-0.2,0.6-0.2,1c0,0.5,0.1,0.8,0.4,1.1c0.3,0.3,0.7,0.4,1.1,0.4c0.4,0,0.7-0.1,1-0.3c0.3-0.2,0.5-0.4,0.7-0.7
		c0.2-0.3,0.3-0.7,0.3-1c0-0.3-0.1-0.6-0.2-0.8c-0.1-0.2-0.3-0.4-0.5-0.6C118.3,43,118,43,117.7,43"/>
	<polygon class="st11" points="121.3,40.8 121.9,40.8 121.1,47 120.5,47 	"/>
	<path class="st11" d="M122.8,42.5h0.5l-0.6,4.4h-0.6L122.8,42.5z M123.2,40.7c0.1,0,0.2,0,0.3,0.1c0.1,0.1,0.1,0.2,0.1,0.3
		c0,0.1,0,0.2-0.1,0.3c-0.1,0.1-0.2,0.1-0.3,0.1c-0.1,0-0.2,0-0.3-0.1c-0.1-0.1-0.1-0.2-0.1-0.3c0-0.1,0-0.2,0.1-0.3
		C123,40.8,123.1,40.7,123.2,40.7"/>
	<path class="st11" d="M128.3,47h-0.6l0.1-0.7c-0.5,0.5-1.1,0.8-1.8,0.8c-0.6,0-1.1-0.2-1.5-0.6c-0.4-0.4-0.6-0.9-0.6-1.5
		c0-0.7,0.2-1.3,0.8-1.8c0.5-0.5,1.1-0.8,1.8-0.8c0.4,0,0.7,0.1,1,0.2c0.3,0.2,0.5,0.4,0.7,0.7l0.3-2.5h0.6L128.3,47z M126.2,46.6
		c0.4,0,0.7-0.1,1-0.3s0.5-0.4,0.7-0.7c0.2-0.3,0.3-0.7,0.3-1.1c0-0.5-0.1-0.8-0.4-1.1c-0.3-0.3-0.7-0.4-1.1-0.4
		c-0.5,0-1,0.2-1.4,0.6c-0.4,0.4-0.6,0.9-0.6,1.4c0,0.5,0.1,0.8,0.4,1.1C125.3,46.4,125.7,46.6,126.2,46.6"/>
	<path class="st11" d="M134,47h-0.6l0.1-0.7c-0.5,0.5-1.1,0.8-1.8,0.8c-0.6,0-1.1-0.2-1.5-0.6c-0.4-0.4-0.6-0.9-0.6-1.5
		c0-0.7,0.3-1.3,0.8-1.8c0.5-0.5,1.1-0.8,1.8-0.8c0.4,0,0.7,0.1,1,0.2c0.3,0.2,0.5,0.4,0.7,0.7l0.1-0.8h0.6L134,47z M131.9,46.6
		c0.4,0,0.7-0.1,1-0.3c0.3-0.2,0.5-0.4,0.7-0.7c0.2-0.3,0.3-0.7,0.3-1.1c0-0.5-0.1-0.8-0.4-1.1c-0.3-0.3-0.7-0.4-1.1-0.4
		c-0.5,0-1,0.2-1.4,0.6c-0.4,0.4-0.6,0.9-0.6,1.4c0,0.5,0.1,0.8,0.4,1.1C131,46.4,131.4,46.6,131.9,46.6"/>
	<path class="st11" d="M135.8,42.5h0.5l-0.6,4.4h-0.6L135.8,42.5z M136.3,40.7c0.1,0,0.2,0,0.3,0.1c0.1,0.1,0.1,0.2,0.1,0.3
		c0,0.1,0,0.2-0.1,0.3c-0.1,0.1-0.2,0.1-0.3,0.1c-0.1,0-0.2,0-0.3-0.1c-0.1-0.1-0.1-0.2-0.1-0.3c0-0.1,0-0.2,0.1-0.3
		C136,40.8,136.1,40.7,136.3,40.7"/>
	<path class="st11" d="M137.4,42.5h0.6l-0.1,0.6c0.2-0.2,0.3-0.4,0.5-0.5c0.2-0.1,0.4-0.2,0.7-0.2c0.2,0,0.3,0,0.5,0.1l-0.3,0.5
		c-0.1-0.1-0.3-0.1-0.4-0.1c-0.2,0-0.4,0.1-0.6,0.2c-0.2,0.1-0.4,0.3-0.5,0.6c-0.1,0.3-0.2,0.7-0.3,1.3l-0.3,1.9h-0.6L137.4,42.5z"
		/>
	<path class="st11" d="M144.1,44.9h-3.9c0,0.5,0.1,0.9,0.4,1.2c0.3,0.3,0.7,0.5,1.1,0.5c0.3,0,0.6-0.1,0.9-0.2
		c0.3-0.1,0.5-0.3,0.7-0.5l0.4,0.3c-0.2,0.3-0.5,0.5-0.8,0.7c-0.3,0.2-0.7,0.2-1.1,0.2c-0.7,0-1.2-0.2-1.6-0.6
		c-0.3-0.4-0.5-0.9-0.5-1.5c0-0.4,0.1-0.9,0.4-1.3c0.2-0.4,0.5-0.7,0.9-0.9c0.4-0.2,0.8-0.3,1.3-0.3c0.6,0,1,0.2,1.4,0.6
		c0.4,0.4,0.6,0.9,0.6,1.5C144.1,44.6,144.1,44.7,144.1,44.9 M143.6,44.4c0-0.4-0.2-0.8-0.4-1c-0.3-0.3-0.6-0.4-1-0.4
		c-0.4,0-0.8,0.1-1.2,0.4c-0.3,0.2-0.6,0.6-0.7,1H143.6z"/>
</g>
</svg>
